# xmcd CD database file
#
# Track frame offsets:
#	151
#	19890
#	40472
#	58880
#	72828
#	88786
#	105515
#	125153
#	143218
#	160927
#
# Disc length: 2373 seconds
#
# Revision: 0
# Processed by: cddbd v1.4PL0 Copyright (c) Steve Scherf et al.
# Submitted via: CDex 1.50beta9
#
DISCID=9109430a
DTITLE=Kieran Kane - The Blue Chair
DYEAR=2000
DGENRE=Country
TTITLE0=Honeymoon Wine
TTITLE1=Love Is Fair
TTITLE2=Same Old Blues
TTITLE3=Four Questions
TTITLE4=I'm Sorry
TTITLE5=Tu Es Avec Moi
TTITLE6=Irish Heartbeat
TTITLE7=I'll Go On Loving You
TTITLE8=Nous Sommes Les Mêmes
TTITLE9=Rosie's Gone
EXTD=YEAR: 2000
EXTT0=
EXTT1=
EXTT2=
EXTT3=
EXTT4=
EXTT5=
EXTT6=
EXTT7=
EXTT8=
EXTT9=
PLAYORDER=
